<svg xmlns="http://www.w3.org/2000/svg" version="1.1" xmlns:xlink="http://www.w3.org/1999/xlink" xmlns:svgjs="http://svgjs.dev/svgjs" width="1920" height="1080" preserveAspectRatio="none" viewBox="0 0 1920 1080"><g mask="url(&quot;#SvgjsMask1085&quot;)" fill="none"><path d="M0 0L490.64 0L0 508.8z" fill="rgba(255, 255, 255, .1)"></path><path d="M0 508.8L490.64 0L1192.8 0L0 700z" fill="rgba(255, 255, 255, .075)"></path><path d="M0 700L1192.8 0L1403.1 0L0 728.56z" fill="rgba(255, 255, 255, .05)"></path><path d="M0 728.56L1403.1 0L1608.01 0L0 842.5799999999999z" fill="rgba(255, 255, 255, .025)"></path><path d="M1920 1080L1015.77 1080L1920 781.53z" fill="rgba(0, 0, 0, .1)"></path><path d="M1920 781.53L1015.77 1080L620.53 1080L1920 682.4z" fill="rgba(0, 0, 0, .075)"></path><path d="M1920 682.4L620.53 1080L288.55999999999995 1080L1920 542.47z" fill="rgba(0, 0, 0, .05)"></path><path d="M1920 542.47L288.55999999999995 1080L224.75999999999993 1080L1920 275.68z" fill="rgba(0, 0, 0, .025)"></path></g><defs><mask id="SvgjsMask1085"><rect width="1920" height="1080" fill="#ffffff"></rect></mask></defs></svg>